<svg id="eo9wzgymng81" xmlns="http://www.w3.org/2000/svg" xmlns:xlink="http://www.w3.org/1999/xlink" viewBox="0 0 790.858690 584.780700" shape-rendering="geometricPrecision" text-rendering="geometricPrecision"><style><![CDATA[#eo9wzgymng822_tr {animation: eo9wzgymng822_tr__tr 8000ms linear infinite normal forwards}@keyframes eo9wzgymng822_tr__tr { 0% {transform: translate(228.063980px,303.488998px) rotate(0deg)} 50% {transform: translate(228.063980px,303.488998px) rotate(359deg)} 100% {transform: translate(228.063980px,303.488998px) rotate(0deg)} }#eo9wzgymng827_tr {animation: eo9wzgymng827_tr__tr 8000ms linear infinite normal forwards}@keyframes eo9wzgymng827_tr__tr { 0% {transform: translate(228.065002px,303.487511px) rotate(0deg)} 50% {transform: translate(228.065002px,303.487511px) rotate(-180deg)} 100% {transform: translate(228.065002px,303.487511px) rotate(0deg)} }#eo9wzgymng832_tr {animation: eo9wzgymng832_tr__tr 8000ms linear infinite normal forwards}@keyframes eo9wzgymng832_tr__tr { 0% {transform: translate(228.072983px,303.490021px) rotate(0deg)} 50% {transform: translate(228.072983px,303.490021px) rotate(359deg)} 100% {transform: translate(228.072983px,303.490021px) rotate(0deg)} }]]></style><defs><linearGradient id="eo9wzgymng87-fill" x1="329.410858" y1="364.173187" x2="321.668532" y2="176.574921" spreadMethod="pad" gradientUnits="userSpaceOnUse"><stop id="eo9wzgymng87-fill-0" offset="0%" stop-color="rgb(237,29,36)"/><stop id="eo9wzgymng87-fill-1" offset="0.695552%" stop-color="rgb(237,29,36)"/><stop id="eo9wzgymng87-fill-2" offset="99.434000%" stop-color="rgb(37,45,104)"/><stop id="eo9wzgymng87-fill-3" offset="100%" stop-color="rgb(37,45,104)"/></linearGradient><linearGradient id="eo9wzgymng812-fill" x1="329.329163" y1="364.177795" x2="321.586469" y2="176.570618" spreadMethod="pad" gradientUnits="userSpaceOnUse"><stop id="eo9wzgymng812-fill-0" offset="0%" stop-color="rgb(237,29,36)"/><stop id="eo9wzgymng812-fill-1" offset="0.695552%" stop-color="rgb(237,29,36)"/><stop id="eo9wzgymng812-fill-2" offset="99.434000%" stop-color="rgb(37,45,104)"/><stop id="eo9wzgymng812-fill-3" offset="100%" stop-color="rgb(37,45,104)"/></linearGradient><linearGradient id="eo9wzgymng817-fill" x1="332.145111" y1="364.062195" x2="324.402542" y2="176.458023" spreadMethod="pad" gradientUnits="userSpaceOnUse"><stop id="eo9wzgymng817-fill-0" offset="0%" stop-color="rgb(237,29,36)"/><stop id="eo9wzgymng817-fill-1" offset="0.695552%" stop-color="rgb(237,29,36)"/><stop id="eo9wzgymng817-fill-2" offset="99.434000%" stop-color="rgb(37,45,104)"/><stop id="eo9wzgymng817-fill-3" offset="100%" stop-color="rgb(37,45,104)"/></linearGradient><linearGradient id="eo9wzgymng822-fill" x1="147.057816" y1="303.488068" x2="262.886719" y2="303.488068" spreadMethod="pad" gradientUnits="userSpaceOnUse"><stop id="eo9wzgymng822-fill-0" offset="0%" stop-color="rgb(251,188,9)"/><stop id="eo9wzgymng822-fill-1" offset="0.352758%" stop-color="rgb(251,188,9)"/><stop id="eo9wzgymng822-fill-2" offset="99.808700%" stop-color="rgb(23,71,46)"/><stop id="eo9wzgymng822-fill-3" offset="100%" stop-color="rgb(23,71,46)"/></linearGradient><linearGradient id="eo9wzgymng827-fill" x1="147.054550" y1="303.487335" x2="262.889267" y2="303.487335" spreadMethod="pad" gradientUnits="userSpaceOnUse"><stop id="eo9wzgymng827-fill-0" offset="0%" stop-color="rgb(251,188,9)"/><stop id="eo9wzgymng827-fill-1" offset="0.352758%" stop-color="rgb(251,188,9)"/><stop id="eo9wzgymng827-fill-2" offset="99.808700%" stop-color="rgb(23,71,46)"/><stop id="eo9wzgymng827-fill-3" offset="100%" stop-color="rgb(23,71,46)"/></linearGradient><linearGradient id="eo9wzgymng832-fill" x1="147.056152" y1="303.490021" x2="262.900101" y2="303.490021" spreadMethod="pad" gradientUnits="userSpaceOnUse"><stop id="eo9wzgymng832-fill-0" offset="0%" stop-color="rgb(251,188,9)"/><stop id="eo9wzgymng832-fill-1" offset="0.352758%" stop-color="rgb(251,188,9)"/><stop id="eo9wzgymng832-fill-2" offset="99.808700%" stop-color="rgb(23,71,46)"/><stop id="eo9wzgymng832-fill-3" offset="100%" stop-color="rgb(23,71,46)"/></linearGradient><linearGradient id="eo9wzgymng837-fill" x1="104.963211" y1="357.190979" x2="104.963211" y2="246.025352" spreadMethod="pad" gradientUnits="userSpaceOnUse"><stop id="eo9wzgymng837-fill-0" offset="0%" stop-color="rgb(146,181,227)"/><stop id="eo9wzgymng837-fill-1" offset="0.958626%" stop-color="rgb(146,181,227)"/><stop id="eo9wzgymng837-fill-2" offset="99.434000%" stop-color="rgb(37,45,104)"/><stop id="eo9wzgymng837-fill-3" offset="100%" stop-color="rgb(37,45,104)"/></linearGradient><linearGradient id="eo9wzgymng842-fill" x1="120.567673" y1="357.183777" x2="120.567673" y2="246.032936" spreadMethod="pad" gradientUnits="userSpaceOnUse"><stop id="eo9wzgymng842-fill-0" offset="0%" stop-color="rgb(146,181,227)"/><stop id="eo9wzgymng842-fill-1" offset="0.958626%" stop-color="rgb(146,181,227)"/><stop id="eo9wzgymng842-fill-2" offset="99.434000%" stop-color="rgb(37,45,104)"/><stop id="eo9wzgymng842-fill-3" offset="100%" stop-color="rgb(37,45,104)"/></linearGradient><linearGradient id="eo9wzgymng847-fill" x1="136.163620" y1="357.186157" x2="136.163620" y2="246.031174" spreadMethod="pad" gradientUnits="userSpaceOnUse"><stop id="eo9wzgymng847-fill-0" offset="0%" stop-color="rgb(146,181,227)"/><stop id="eo9wzgymng847-fill-1" offset="0.958626%" stop-color="rgb(146,181,227)"/><stop id="eo9wzgymng847-fill-2" offset="99.434000%" stop-color="rgb(37,45,104)"/><stop id="eo9wzgymng847-fill-3" offset="100%" stop-color="rgb(37,45,104)"/></linearGradient></defs><g id="eo9wzgymng82" transform="matrix(1.33333325386047 0 0 -1.33333325386047 11.87977313995361 699.12774658203125)"><g id="eo9wzgymng83"><g id="eo9wzgymng84"><g id="eo9wzgymng85"><g id="eo9wzgymng86"><path id="eo9wzgymng87" d="M267.250000,368.293000C270.185000,366.519000,273.023000,364.591000,275.680000,362.445000L275.680000,362.445000C276.210000,391.530000,300.001000,415.044000,329.208000,415.044000L329.208000,415.044000C358.772000,415.044000,382.806000,391.009000,382.806000,361.463000L382.806000,361.463000C382.806000,345.126000,375.491000,329.888000,362.743000,319.650000L362.743000,319.650000L362.743000,319.635000C351.457000,310.895000,331.271000,308.169000,328.955000,307.874000L328.955000,307.874000C320.004000,307.844000,311.522000,305.873000,303.841000,302.428000L303.841000,302.428000C303.790000,298.947000,303.450000,295.532000,302.962000,292.172000L302.962000,292.172000C310.729000,296.563000,319.673000,299.099000,329.208000,299.099000L329.208000,299.099000L329.705000,299.130000C330.705000,299.242000,354.557000,301.979000,368.429000,312.925000L368.429000,312.925000L368.412000,312.955000C383.128000,324.859000,391.576000,342.525000,391.576000,361.463000L391.576000,361.463000C391.576000,395.845000,363.595000,423.819000,329.208000,423.819000L329.208000,423.819000C297.145000,423.819000,270.673000,399.472000,267.250000,368.293000" fill="url(#eo9wzgymng87-fill)" stroke="none" stroke-width="1"/></g></g></g></g><g id="eo9wzgymng88"><g id="eo9wzgymng89"><g id="eo9wzgymng810"><g id="eo9wzgymng811"><path id="eo9wzgymng812" d="M284.693000,361.463000C284.693000,358.456000,285.094000,355.555000,285.660000,352.715000L285.660000,352.715000C291.746000,345.608000,296.500000,337.364000,299.636000,328.345000L299.636000,328.345000C302.013000,326.207000,304.591000,324.257000,307.403000,322.677000L307.403000,322.677000C305.506000,322.141000,303.650000,321.514000,301.812000,320.845000L301.812000,320.845000C302.483000,317.960000,303.049000,315.026000,303.381000,312.025000L303.381000,312.025000C311.365000,315.137000,320.004000,316.927000,329.087000,316.939000L329.087000,316.939000C329.121000,316.939000,329.182000,316.935000,329.208000,316.935000L329.208000,316.935000C353.766000,316.935000,373.742000,336.904000,373.742000,361.463000L373.742000,361.463000C373.742000,386.005000,353.766000,405.975000,329.208000,405.975000L329.208000,405.975000C304.653000,405.975000,284.693000,386.005000,284.693000,361.463000M293.471000,361.463000C293.471000,381.167000,309.503000,397.208000,329.208000,397.208000L329.208000,397.208000C348.932000,397.208000,364.973000,381.167000,364.973000,361.463000L364.973000,361.463000C364.973000,341.751000,348.932000,325.713000,329.208000,325.713000L329.208000,325.713000L329.121000,325.713000C309.450000,325.760000,293.471000,341.774000,293.471000,361.463000" fill="url(#eo9wzgymng812-fill)" stroke="none" stroke-width="1"/></g></g></g></g><g id="eo9wzgymng813"><g id="eo9wzgymng814"><g id="eo9wzgymng815"><g id="eo9wzgymng816"><path id="eo9wzgymng817" d="M250.392000,375.944000C253.265000,375.061000,256.060000,373.973000,258.770000,372.764000L258.770000,372.764000C264.220000,406.777000,293.689000,432.885000,329.208000,432.885000L329.208000,432.885000C368.595000,432.885000,400.648000,400.835000,400.648000,361.463000L400.648000,361.463000C400.648000,322.081000,368.595000,290.034000,329.208000,290.034000L329.208000,290.034000L329.208000,290.042000C317.792000,290.042000,307.464000,285.597000,299.582000,278.500000L299.582000,278.500000C296.439000,269.491000,291.668000,261.251000,285.571000,254.156000L285.571000,254.156000C285.015000,251.357000,284.693000,248.475000,284.693000,245.515000L284.693000,245.515000C284.693000,220.971000,304.653000,200.997000,329.208000,200.997000L329.208000,200.997000C353.766000,200.997000,373.742000,220.971000,373.742000,245.515000L373.742000,245.515000C373.742000,261.938000,364.911000,276.558000,351.066000,284.306000L351.066000,284.306000C354.715000,285.343000,358.249000,286.627000,361.663000,288.148000L361.663000,288.148000C374.943000,278.023000,382.806000,262.284000,382.806000,245.515000L382.806000,245.515000C382.806000,215.964000,358.772000,191.935000,329.208000,191.935000L329.208000,191.935000C300.001000,191.935000,276.210000,215.436000,275.680000,244.531000L275.680000,244.531000C273.023000,242.381000,270.185000,240.459000,267.250000,238.680000L267.250000,238.680000C270.673000,207.506000,297.145000,183.160000,329.208000,183.160000L329.208000,183.160000C363.595000,183.160000,391.576000,211.134000,391.576000,245.515000L391.576000,245.515000C391.576000,263.652000,383.678000,280.755000,370.162000,292.539000L370.162000,292.539000C372.854000,294.138000,375.422000,295.888000,377.894000,297.783000L377.894000,297.783000C392.394000,284.276000,400.648000,265.465000,400.648000,245.515000L400.648000,245.515000C400.648000,206.136000,368.595000,174.095000,329.208000,174.095000L329.208000,174.095000C293.689000,174.095000,264.220000,200.195000,258.770000,234.213000L258.770000,234.213000C256.060000,232.998000,253.265000,231.916000,250.392000,231.030000L250.392000,231.030000C257.237000,193.709000,289.943000,165.315000,329.208000,165.315000L329.208000,165.315000C373.436000,165.315000,409.428000,201.293000,409.428000,245.515000L409.428000,245.515000C409.428000,267.586000,400.415000,288.407000,384.583000,303.518000L384.583000,303.518000C399.874000,318.126000,409.428000,338.691000,409.428000,361.463000L409.428000,361.463000C409.428000,405.687000,373.436000,441.658000,329.208000,441.658000L329.208000,441.658000C289.943000,441.658000,257.237000,413.269000,250.392000,375.944000M330.261000,281.281000L330.261000,281.236000C333.076000,281.112000,338.099000,280.058000,339.989000,279.623000L339.989000,279.623000C354.923000,274.905000,364.973000,261.220000,364.973000,245.515000L364.973000,245.515000C364.973000,225.810000,348.932000,209.770000,329.208000,209.770000L329.208000,209.770000C309.503000,209.770000,293.471000,225.810000,293.471000,245.515000L293.471000,245.515000C293.471000,265.228000,309.503000,281.268000,329.208000,281.268000L329.208000,281.268000L329.208000,281.261000C329.566000,281.261000,329.914000,281.281000,330.261000,281.281000" fill="url(#eo9wzgymng817-fill)" stroke="none" stroke-width="1"/></g></g></g></g><g id="eo9wzgymng818"><g id="eo9wzgymng819"><g id="eo9wzgymng820"><g id="eo9wzgymng821"><g id="eo9wzgymng822_tr" transform="translate(228.063980,303.488998) rotate(0)"><path id="eo9wzgymng822" d="M147.872000,303.484000C147.872000,259.264000,183.853000,223.285000,228.064000,223.285000L228.064000,223.285000C272.293000,223.285000,308.256000,259.264000,308.256000,303.484000L308.256000,303.484000C308.256000,347.709000,272.293000,383.693000,228.064000,383.693000L228.064000,383.693000C183.853000,383.693000,147.872000,347.709000,147.872000,303.484000M156.649000,303.484000C156.649000,342.876000,188.695000,374.910000,228.064000,374.910000L228.064000,374.910000C267.460000,374.910000,299.506000,342.876000,299.506000,303.484000L299.506000,303.484000C299.506000,264.101000,267.460000,232.063000,228.064000,232.063000L228.064000,232.063000C188.695000,232.063000,156.649000,264.101000,156.649000,303.484000" transform="translate(-228.063980,-303.488998)" fill="url(#eo9wzgymng822-fill)" stroke="none" stroke-width="1"/></g></g></g></g></g><g id="eo9wzgymng823"><g id="eo9wzgymng824"><g id="eo9wzgymng825"><g id="eo9wzgymng826"><g id="eo9wzgymng827_tr" transform="translate(228.065002,303.487511) rotate(0)"><path id="eo9wzgymng827" d="M165.706000,303.484000C165.706000,269.098000,193.676000,241.124000,228.064000,241.124000L228.064000,241.124000C262.469000,241.124000,290.424000,269.098000,290.424000,303.484000L290.424000,303.484000C290.424000,337.874000,262.469000,365.851000,228.064000,365.851000L228.064000,365.851000C193.676000,365.851000,165.706000,337.874000,165.706000,303.484000M174.474000,303.484000C174.474000,333.039000,198.518000,357.075000,228.064000,357.075000L228.064000,357.075000C257.629000,357.075000,281.654000,333.039000,281.654000,303.484000L281.654000,303.484000C281.654000,273.931000,257.629000,249.898000,228.064000,249.898000L228.064000,249.898000C198.518000,249.898000,174.474000,273.931000,174.474000,303.484000" transform="translate(-228.065002,-303.487511)" fill="url(#eo9wzgymng827-fill)" stroke="none" stroke-width="1"/></g></g></g></g></g><g id="eo9wzgymng828"><g id="eo9wzgymng829"><g id="eo9wzgymng830"><g id="eo9wzgymng831"><g id="eo9wzgymng832_tr" transform="translate(228.072983,303.490021) rotate(0)"><path id="eo9wzgymng832" d="M183.549000,303.484000C183.549000,278.935000,203.525000,258.964000,228.064000,258.964000L228.064000,258.964000C252.622000,258.964000,272.597000,278.935000,272.597000,303.484000L272.597000,303.484000C272.597000,328.038000,252.622000,348.016000,228.064000,348.016000L228.064000,348.016000C203.525000,348.016000,183.549000,328.038000,183.549000,303.484000M192.326000,303.484000C192.326000,323.203000,208.357000,339.236000,228.064000,339.236000L228.064000,339.236000C247.797000,339.236000,263.803000,323.203000,263.803000,303.484000L263.803000,303.484000C263.803000,283.775000,247.797000,267.743000,228.064000,267.743000L228.064000,267.743000C208.357000,267.743000,192.326000,283.775000,192.326000,303.484000" transform="translate(-228.072983,-303.490021)" fill="url(#eo9wzgymng832-fill)" stroke="none" stroke-width="1"/></g></g></g></g></g><g id="eo9wzgymng833"><g id="eo9wzgymng834"><g id="eo9wzgymng835"><g id="eo9wzgymng836"><path id="eo9wzgymng837" d="M100.579000,268.335000L109.349000,268.335000L109.349000,339.686000L100.579000,339.686000Z" fill="url(#eo9wzgymng837-fill)" stroke="none" stroke-width="1"/></g></g></g></g><g id="eo9wzgymng838"><g id="eo9wzgymng839"><g id="eo9wzgymng840"><g id="eo9wzgymng841"><path id="eo9wzgymng842" d="M116.183000,252.932000L124.953000,252.932000L124.953000,355.443000L116.183000,355.443000Z" fill="url(#eo9wzgymng842-fill)" stroke="none" stroke-width="1"/></g></g></g></g><g id="eo9wzgymng843"><g id="eo9wzgymng844"><g id="eo9wzgymng845"><g id="eo9wzgymng846"><path id="eo9wzgymng847" d="M131.771000,232.250000L140.558000,232.250000L140.558000,374.723000L131.771000,374.723000Z" fill="url(#eo9wzgymng847-fill)" stroke="none" stroke-width="1"/></g></g></g></g></g></svg>